<svg id="visual" viewBox="0 0 960 540" width="960" height="540" xmlns="http://www.w3.org/2000/svg" xmlns:xlink="http://www.w3.org/1999/xlink" version="1.1"><rect x="0" y="0" width="960" height="540" fill="#ffffff"></rect><path d="M0 252L22.8 247.8C45.7 243.7 91.3 235.3 137 232.2C182.7 229 228.3 231 274 241.7C319.7 252.3 365.3 271.7 411.2 278.7C457 285.7 503 280.3 548.8 272.7C594.7 265 640.3 255 686 248.5C731.7 242 777.3 239 823 238.5C868.7 238 914.3 240 937.2 241L960 242L960 541L937.2 541C914.3 541 868.7 541 823 541C777.3 541 731.7 541 686 541C640.3 541 594.7 541 548.8 541C503 541 457 541 411.2 541C365.3 541 319.7 541 274 541C228.3 541 182.7 541 137 541C91.3 541 45.7 541 22.8 541L0 541Z" fill="#a9eee8"></path><path d="M0 387L22.8 389.5C45.7 392 91.3 397 137 391.3C182.7 385.7 228.3 369.3 274 363.3C319.7 357.3 365.3 361.7 411.2 368C457 374.3 503 382.7 548.8 389.5C594.7 396.3 640.3 401.7 686 395.7C731.7 389.7 777.3 372.3 823 363.8C868.7 355.3 914.3 355.7 937.2 355.8L960 356L960 541L937.2 541C914.3 541 868.7 541 823 541C777.3 541 731.7 541 686 541C640.3 541 594.7 541 548.8 541C503 541 457 541 411.2 541C365.3 541 319.7 541 274 541C228.3 541 182.7 541 137 541C91.3 541 45.7 541 22.8 541L0 541Z" fill="#cef4ed"></path></svg>