<?xml version="1.0" encoding="UTF-8" standalone="no"?>
<!-- Created with Inkscape (http://www.inkscape.org/) -->

<svg
   width="47.395969mm"
   height="53.759319mm"
   viewBox="0 0 47.395969 53.759319"
   version="1.1"
   id="svg1533"
   xml:space="preserve"
   inkscape:version="1.2.2 (b0a8486541, 2022-12-01)"
   sodipodi:docname="icon_clean.svg"
   xmlns:inkscape="http://www.inkscape.org/namespaces/inkscape"
   xmlns:sodipodi="http://sodipodi.sourceforge.net/DTD/sodipodi-0.dtd"
   xmlns="http://www.w3.org/2000/svg"
   xmlns:svg="http://www.w3.org/2000/svg"><sodipodi:namedview
     id="namedview1535"
     pagecolor="#ffffff"
     bordercolor="#000000"
     borderopacity="0.25"
     inkscape:showpageshadow="2"
     inkscape:pageopacity="0.0"
     inkscape:pagecheckerboard="0"
     inkscape:deskcolor="#d1d1d1"
     inkscape:document-units="mm"
     showgrid="false"
     inkscape:zoom="0.73762626"
     inkscape:cx="-121.33516"
     inkscape:cy="89.476207"
     inkscape:window-width="2560"
     inkscape:window-height="1008"
     inkscape:window-x="0"
     inkscape:window-y="0"
     inkscape:window-maximized="1"
     inkscape:current-layer="layer1" /><defs
     id="defs1530" /><g
     inkscape:label="Capa 1"
     inkscape:groupmode="layer"
     id="layer1"
     transform="translate(-66.864937,-38.679081)"><path
       style="fill:#008080;stroke-width:0.0548564"
       d="m 97.173123,92.324834 c -9.43928,-1.103884 -18.4081,-4.981568 -25.15168,-10.874371 -1.397435,-1.221133 -4.118406,-4.077885 -4.730045,-4.966082 -0.635515,-0.922868 -0.432275,-2.253985 0.440897,-2.887647 0.419282,-0.304273 0.688147,-0.364161 1.875464,-0.417748 2.013847,-0.09089 3.669237,-0.296982 5.434039,-0.676518 2.5313,-0.544379 5.117229,-1.429263 7.2378,-2.476718 2.025207,-1.000349 3.392344,-1.945553 4.791947,-3.313032 0.893458,-0.872951 1.335801,-1.405642 2.188172,-2.635102 0.345134,-0.497822 0.649949,-0.899977 0.677365,-0.893678 0.09825,0.02257 3.529928,1.964121 3.531562,1.998059 0.0024,0.04892 -1.358692,2.05276 -1.723541,2.53753 -3.342788,4.441524 -9.749281,7.809117 -17.337405,9.113459 -1.052362,0.180893 -1.039532,0.177017 -0.949162,0.28674 0.179538,0.217985 1.406166,1.299018 2.101148,1.85175 1.628018,1.294796 2.590459,1.994099 2.798048,2.033043 0.304335,0.05709 0.696772,-0.0024 1.426902,-0.216173 1.631543,-0.477786 2.985816,-1.169252 4.1818,-2.135148 0.248911,-0.201024 0.452566,-0.340706 0.452566,-0.310404 0,0.126628 -0.425586,0.889192 -0.80991,1.451195 -0.501506,0.73336 -1.130463,1.540289 -1.871143,2.400608 -0.305513,0.354861 -0.555478,0.659118 -0.555478,0.676126 0,0.01701 0.512222,0.278727 1.138272,0.581598 0.626049,0.302871 1.521116,0.757374 1.989038,1.010008 1.093565,0.59042 1.512883,0.707347 2.384665,0.664962 0.905103,-0.044 1.565761,-0.256624 2.952686,-0.950262 1.663256,-0.831837 3.531149,-2.138058 5.434466,-3.800333 0.297871,-0.260147 0.62512,-0.542815 0.72722,-0.62815 l 0.185637,-0.155155 -0.144515,0.402009 c -0.406046,1.129529 -1.686685,3.33386 -3.492908,6.012256 -0.392104,0.581439 -0.703159,1.066388 -0.691233,1.077665 0.117903,0.111496 5.279757,1.071946 5.770618,1.073721 0.316473,0.0011 0.470193,-0.146975 1.010495,-0.97368 1.91679,-2.93285 3.73997,-6.402223 5.28233,-10.051911 0.50142,-1.186509 0.9174,-2.268306 1.72971,-4.498229 0.32423,-0.890046 0.59226,-1.622574 0.59564,-1.627841 0.01,-0.01533 3.84236,1.307177 3.87266,1.33636 0.0537,0.05171 -0.97736,2.928209 -1.72081,4.800887 -2.02852,5.109602 -4.56638,9.902359 -7.20296,13.60277 -0.82201,1.15369 -1.150768,1.43269 -1.89494,1.60814 -0.438666,0.103423 -0.843408,0.097 -1.935417,-0.0307 z M 108.44612,67.647666 c -1.46329,-0.655507 -5.86964,-2.618744 -9.791873,-4.362749 -3.922236,-1.744005 -7.139739,-3.178237 -7.150008,-3.187182 -0.04828,-0.04206 0.467592,-0.926318 0.792886,-1.359084 0.606637,-0.807064 1.495211,-1.482756 2.564284,-1.949944 1.485481,-0.649158 3.020643,-0.717857 4.551921,-0.203698 0.391654,0.131506 3.32404,1.404533 5.82369,2.528218 3.48194,1.56526 3.76907,1.728083 4.69023,2.659637 0.84362,0.853152 1.34486,1.730296 1.64975,2.887003 0.16349,0.620268 0.20488,1.948057 0.0826,2.65035 -0.10394,0.597049 -0.40855,1.542405 -0.49448,1.534596 -0.0322,-0.0029 -1.25571,-0.541639 -2.71901,-1.197147 z m -3.26396,-11.639407 c -1.68957,-0.753431 -3.10242,-1.400338 -3.13966,-1.437572 -0.0537,-0.05369 0.76481,-1.627852 3.95658,-7.60937 2.39014,-4.479233 4.10709,-7.636956 4.22821,-7.77632 0.11217,-0.129055 0.29854,-0.282908 0.41417,-0.341896 0.94988,-0.484595 2.91294,0.287997 3.43309,1.351147 0.28798,0.58861 0.43721,0.10098 -2.58351,8.441783 -1.49687,4.133156 -2.8087,7.753566 -2.91518,8.045355 -0.10648,0.291789 -0.22243,0.567926 -0.25767,0.613637 -0.0552,0.07163 -0.48837,-0.106097 -3.13603,-1.286764 z"
       id="path1761" /></g></svg>
