<?xml version="1.0" encoding="UTF-8"?>
<svg xmlns="http://www.w3.org/2000/svg" viewBox="0 0 2807.94 1158.3">
  <defs>
    <style>
      .cls-1 {
        opacity: .28;
      }

      .cls-1, .cls-2, .cls-3 {
        mix-blend-mode: multiply;
      }

      .cls-4 {
        isolation: isolate;
      }

      .cls-2 {
        fill: #70ceb5;
        opacity: .24;
      }

      .cls-5 {
        fill: none;
        stroke: #9cc;
        stroke-miterlimit: 10;
        stroke-width: 3px;
      }
    </style>
  </defs>
  <g class="cls-4">
    <g id="Capa_2" data-name="Capa 2">
      <g id="Capa_1-2" data-name="Capa 1">
        <g class="cls-3">
          <path class="cls-2" d="M357.8,78.29c191.54-92.72,453.77-23.56,483.7-15.32,203.31,55.92,187.54,143.31,357.02,204.02,280.7,100.55,468.13-87.5,891.39-33.87,69.41,8.79,418.15,52.98,562.01,254.01,6.02,8.42,135.31,195.29,16.12,333.84-205.94,239.41-1052.51,216.85-1334.78-40.32-124.21-113.16-72.11-210.66-201.54-262.88-254.84-102.81-614.96,211.33-825.75,123.38-181.98-75.93-212.59-434.86,51.83-562.86Z"/>
        </g>
        <g class="cls-1">
          <path class="cls-5" d="M164.46,262.87C334.55,90.76,589.6,8.57,623.33,5.77c542-45,276.04,279.47,470.3,324.34,321.74,74.31,458.36-228.52,913.47-251.8,74.63-3.82,449.61-23,660.33,221.55,8.82,10.24,200.09,238.6,119.03,457.36-140.06,378.02-1024.37,541.57-1395.75,251.32-163.42-127.72-139.3-274.36-289.45-316.71-295.63-83.38-681.51,297.92-926.93,224.94-211.88-63.01-244.68-416.3-9.87-653.9Z"/>
        </g>
      </g>
    </g>
  </g>
</svg>